<?xml version="1.0" encoding="UTF-8" standalone="no"?>
<!-- Created with Inkscape (http://www.inkscape.org/) -->

<svg
   version="1.1"
   id="svg2"
   xml:space="preserve"
   width="4000"
   height="2666.6667"
   viewBox="0 0 4000 2666.6667"
   sodipodi:docname="7540.eps"
   xmlns:inkscape="http://www.inkscape.org/namespaces/inkscape"
   xmlns:sodipodi="http://sodipodi.sourceforge.net/DTD/sodipodi-0.dtd"
   xmlns="http://www.w3.org/2000/svg"
   xmlns:svg="http://www.w3.org/2000/svg"><defs
     id="defs6" /><sodipodi:namedview
     id="namedview4"
     pagecolor="#ffffff"
     bordercolor="#666666"
     borderopacity="1.0"
     inkscape:pageshadow="2"
     inkscape:pageopacity="0.0"
     inkscape:pagecheckerboard="0" /><g
     id="g8"
     inkscape:groupmode="layer"
     inkscape:label="ink_ext_XXXXXX"
     transform="matrix(1.3333333,0,0,-1.3333333,0,2666.6667)"><g
       id="g10"
       transform="scale(0.1)"><path
         d="M 0,0 H 30000 V 20000 H 0 Z"
         style="fill:#ffffff;fill-opacity:1;fill-rule:nonzero;stroke:none"
         id="path12" /><path
         d="m 27648.2,3026.9 -23884.11,7.2 c 0,0 -8.6,9.3 -24.57,27.2 -248.09,280.6 -2272.56,2690.4 -1313.93,5573.7 167.01,502.6 424.73,1019.5 798.28,1542.1 2354.99,3294.7 5100.62,3069.3 7115.03,1732.4 857.9,-569.4 3331.6,-70.2 5437,3282.2 672.5,1071 1733.7,1738.8 2941.1,2043.3 39.3,10 78.8,19.6 118.4,28.8 11.9,2.6 23.7,5.3 35.6,8 21.6,4.9 43.4,9.6 65.1,14.3 437.3,93.3 891.5,140.4 1351.4,143.3 35.3,0.1 70.7,0.1 106.1,-0.1 140.9,-1.2 282.2,-6.6 423.6,-16 415,-27.5 831.4,-90.1 1240.8,-186.4 56.5,-13.3 112.8,-27.2 169,-41.7 19.8,-5.1 39.5,-10.3 59.2,-15.6 2,-0.5 4,-1.1 6.1,-1.6 114.8,-30.9 228.9,-64.4 342.3,-100.6 962.6,-307 1864.7,-804.5 2596.4,-1474.7 36.9,-33.9 73.6,-68.2 109.6,-102.9 37,-35.6 73.5,-71.7 109.5,-108.3 1263.6,-1280.7 1928,-3124.9 1334.8,-5424.6 -878.2,-3403.8 2672.7,-3527.6 863.3,-6930"
         style="fill:#ebf3fa;fill-opacity:1;fill-rule:nonzero;stroke:none"
         id="path14" /><path
         d="m 18835.4,17263.8 v 27 c 11.9,2.3 23.7,4.6 35.6,6.8 21.6,4.1 43.4,8.1 65.1,11.9 437.3,78.1 891.5,117.5 1351.4,119.9 -459.9,-2.9 -914.1,-50 -1351.4,-143.3 -21.7,-4.7 -43.5,-9.4 -65.1,-14.3 -11.9,-2.7 -23.7,-5.4 -35.6,-8 m 2461.4,102.2 c -159.8,20.9 -319.8,36.7 -479.6,47.3 159.8,-10.5 319.9,-26.4 479.6,-47.3 m -987.3,63.5 c 7.2,0 14.4,0 21.6,0 -7.2,0 -14.4,0 -21.6,0 m 22.4,0 c -0.2,0 -0.3,0 -0.5,0 v 0 c 0.2,0 0.3,0 0.5,0"
         style="fill:#fbfdff;fill-opacity:1;fill-rule:nonzero;stroke:none"
         id="path16" /><path
         d="m 25340.6,10199.8 h -6505.2 v 7064 c 11.9,2.6 23.7,5.3 35.6,8 21.6,4.9 43.4,9.6 65.1,14.3 437.3,93.3 891.5,140.4 1351.4,143.3 v 0 c 7.3,0 14.6,0.1 22,0.1 7.2,0 14.4,0 21.6,0 0.1,0 0.2,0 0.3,0 0.2,0 0.3,0 0.5,0 20.5,0 41.1,-0.1 61.7,-0.2 140.9,-1.2 282.2,-6.6 423.6,-16 v 0 c 159.8,-10.6 319.8,-26.4 479.6,-47.3 179,-23.5 357.6,-53.4 535.2,-89.6 75.5,-15.4 150.9,-31.9 226,-49.5 56.5,-13.3 112.8,-27.2 169,-41.7 19.8,-5.1 39.5,-10.3 59.2,-15.6 2,-0.5 4,-1.1 6.1,-1.6 114.8,-30.9 228.9,-64.4 342.3,-100.6 962.6,-307 1864.7,-804.5 2596.4,-1474.7 36.9,-33.9 73.6,-68.2 109.6,-102.9 v -5290"
         style="fill:#f2f8fd;fill-opacity:1;fill-rule:nonzero;stroke:none"
         id="path18" /><path
         d="m 20437.4,5362.7 353.6,-772.2 v -0.1 l 681.3,-1487.9 c 11.6,-25 36.7,-41.2 64.3,-41.2 h 5.6 c 50,0 86.1,47.7 72.8,95.9 l -540.9,1935.4 -78.9,282.3 -557.8,-12.2"
         style="fill:#f9ddbf;fill-opacity:1;fill-rule:nonzero;stroke:none"
         id="path20" /><path
         d="m 20791,4590.5 c -33.7,351.2 283.1,502.1 283.1,502.1 l -78.9,282.3 -557.8,-12.2 353.6,-772.2"
         style="fill:#eac3a2;fill-opacity:1;fill-rule:nonzero;stroke:none"
         id="path22" /><path
         d="m 24089.9,5362.7 353.6,-772.2 v -0.1 l 681.3,-1487.9 c 11.6,-25 36.6,-41.2 64.3,-41.2 h 5.6 c 50,0 86.1,47.7 72.7,95.9 l -540.9,1935.4 -78.8,282.3 -557.8,-12.2"
         style="fill:#f9ddbf;fill-opacity:1;fill-rule:nonzero;stroke:none"
         id="path24" /><path
         d="m 24443.5,4590.5 c -33.7,351.2 283,502.1 283,502.1 l -78.8,282.3 -557.8,-12.2 353.6,-772.2"
         style="fill:#eac3a2;fill-opacity:1;fill-rule:nonzero;stroke:none"
         id="path26" /><path
         d="M 25270.2,6737.8 V 5447.9 c 0,-80.3 -65.7,-146 -146,-146 H 8988.72 c -80.31,0 -146.02,65.7 -146.02,146 v 1289.9 c 0,80.3 65.71,146 146.02,146 H 25124.2 c 80.3,0 146,-65.7 146,-146"
         style="fill:#f9ddbf;fill-opacity:1;fill-rule:nonzero;stroke:none"
         id="path28" /><path
         d="m 9572.81,5374.9 -78.85,-282.3 -540.89,-1935.4 c -13.38,-48.2 22.76,-95.9 72.77,-95.9 h 5.6 c 27.62,0 52.69,16.2 64.24,41.2 L 9777,4590.4 v 0.1 l 353.6,772.2 -557.79,12.2"
         style="fill:#eac3a2;fill-opacity:1;fill-rule:nonzero;stroke:none"
         id="path30" /><path
         d="m 12450.6,5374.9 -78.8,-282.3 -540.9,-1935.4 c -13.4,-48.2 22.7,-95.9 72.7,-95.9 h 5.6 c 27.7,0 52.7,16.2 64.3,41.2 l 681.3,1487.9 v 0.1 l 353.6,772.2 -557.8,12.2"
         style="fill:#eac3a2;fill-opacity:1;fill-rule:nonzero;stroke:none"
         id="path32" /><path
         d="M 14832.3,11514 H 8791.39 c -92.24,0 -167.71,-75.4 -167.71,-167.7 V 5469.6 c 0,-92.2 75.47,-167.7 167.71,-167.7 h 6040.91 c 92.2,0 167.7,75.5 167.7,167.7 v 5876.7 c 0,92.3 -75.5,167.7 -167.7,167.7"
         style="fill:#eac3a2;fill-opacity:1;fill-rule:nonzero;stroke:none"
         id="path34" /><path
         d="M 15219.1,11349.1 V 6360.2 c 0,-90.7 -65.8,-165 -146.1,-165 H 8988.75 c -80.31,0 -146.02,74.3 -146.02,165 v 4988.9 c 0,90.7 65.71,164.9 146.02,164.9 H 15073 c 80.3,0 146.1,-74.2 146.1,-164.9"
         style="fill:#f9ddbf;fill-opacity:1;fill-rule:nonzero;stroke:none"
         id="path36" /><path
         d="m 10002,6461.9 c 0,0 -1119.48,89.3 -1159.27,116.8 v 1027.5 c 236.07,223.4 699.57,477.4 699.57,477.4 L 10002,6461.9"
         style="fill:#eac3a2;fill-opacity:1;fill-rule:nonzero;stroke:none"
         id="path38" /><path
         d="m 10321.5,10314 c 0,59.3 41.2,107.3 92,107.3 50.8,0 92,-48 92,-107.3 0,-59.2 -41.2,-107.2 -92,-107.2 -50.8,0 -92,48 -92,107.2"
         style="fill:#eac3a2;fill-opacity:1;fill-rule:nonzero;stroke:none"
         id="path40" /><path
         d="m 14001.7,10314 c 0,59.3 41.2,107.3 92,107.3 50.8,0 92,-48 92,-107.3 0,-59.2 -41.2,-107.2 -92,-107.2 -50.8,0 -92,48 -92,107.2"
         style="fill:#eac3a2;fill-opacity:1;fill-rule:nonzero;stroke:none"
         id="path42" /><path
         d="m 10321.5,8290.9 c 0,59.3 41.2,107.3 92,107.3 50.8,0 92,-48 92,-107.3 0,-59.2 -41.2,-107.3 -92,-107.3 -50.8,0 -92,48.1 -92,107.3"
         style="fill:#273f76;fill-opacity:1;fill-rule:nonzero;stroke:none"
         id="path44" /><path
         d="m 14001.7,8290.9 c 0,59.3 41.2,107.3 92,107.3 50.8,0 92,-48 92,-107.3 0,-59.2 -41.2,-107.3 -92,-107.3 -50.8,0 -92,48.1 -92,107.3"
         style="fill:#eac3a2;fill-opacity:1;fill-rule:nonzero;stroke:none"
         id="path46" /><path
         d="M 19879.6,6737.8 V 5447.9 c 0,-80.3 -66.7,-146 -148.1,-146 H 8833.86 c -81.46,0 -148.1,65.7 -148.1,146 v 1289.9 c 0,80.3 66.64,146 148.1,146 H 19731.5 c 81.4,0 148.1,-65.7 148.1,-146"
         style="fill:#eac3a2;fill-opacity:1;fill-rule:nonzero;stroke:none"
         id="path48" /><path
         d="m 12393.4,8832.3 c 0,0 -409.6,-1190.5 -194.8,-1958.9 h 708.2 c 0,0 261.2,1401.3 -513.4,1958.9"
         style="fill:#ecf3fe;fill-opacity:1;fill-rule:nonzero;stroke:none"
         id="path50" /><path
         d="m 12393.4,8832.3 c 0,0 1425.5,198.9 2210.8,0 l 590.2,-1958.9 h -2287.6 c 0,0 261.2,1172.3 -513.4,1958.9"
         style="fill:#ffffff;fill-opacity:1;fill-rule:nonzero;stroke:none"
         id="path52" /><path
         d="m 20258.6,6933.4 c -14.1,7.5 -21.5,11.6 -21.5,11.6 10,-2.8 17.1,-6.8 21.5,-11.6"
         style="fill:#d67330;fill-opacity:1;fill-rule:nonzero;stroke:none"
         id="path54" /><path
         d="m 9617.27,8832.3 c 0,0 -409.69,-1190.5 -194.89,-1958.9 h 708.22 c 0,0 261.2,1401.3 -513.33,1958.9"
         style="fill:#ecf3fe;fill-opacity:1;fill-rule:nonzero;stroke:none"
         id="path56" /><path
         d="m 9617.27,8832.3 c 0,0 1425.53,198.9 2210.83,0 l 590.1,-1958.9 h -2287.6 c 0,0 261.2,1172.3 -513.33,1958.9"
         style="fill:#ffffff;fill-opacity:1;fill-rule:nonzero;stroke:none"
         id="path58" /><path
         d="m 7904.27,7961.6 v -123.9 c 0,-43.4 -14.05,-78.9 -31.19,-78.9 H 3350.11 c -17.14,0 -31.19,35.5 -31.19,78.9 v 123.9 c 0,43.3 14.05,78.8 31.19,78.8 h 4522.97 c 17.14,0 31.19,-35.5 31.19,-78.8"
         style="fill:#77a4e5;fill-opacity:1;fill-rule:nonzero;stroke:none"
         id="path60" /><path
         d="m 7904.27,7961.6 v -123.9 c 0,-43.4 -12.89,-78.9 -28.63,-78.9 H 4284.9 c -15.73,0 -28.63,35.5 -28.63,78.9 v 123.9 c 0,43.3 12.9,78.8 28.63,78.8 h 3590.74 c 15.74,0 28.63,-35.5 28.63,-78.8"
         style="fill:#9fc3f7;fill-opacity:1;fill-rule:nonzero;stroke:none"
         id="path62" /><path
         d="M 6759.52,3078.6 H 3548.48 V 7758.8 H 6759.52 V 3078.6"
         style="fill:#77a4e5;fill-opacity:1;fill-rule:nonzero;stroke:none"
         id="path64" /><path
         d="M 7659.37,3078.6 H 4448.33 V 7758.8 H 7659.37 V 3078.6"
         style="fill:#b0d4ff;fill-opacity:1;fill-rule:nonzero;stroke:none"
         id="path66" /><path
         d="M 4651.87,3367.9 H 7455.91 V 7595.7 H 4651.87 Z M 7486.86,3337 H 4620.92 V 7626.6 H 7486.86 V 3337"
         style="fill:#77a4e5;fill-opacity:1;fill-rule:nonzero;stroke:none"
         id="path68" /><path
         d="m 7471.39,6176.6 h -2835 v 31 h 2835 v -31"
         style="fill:#77a4e5;fill-opacity:1;fill-rule:nonzero;stroke:none"
         id="path70" /><path
         d="m 7471.39,4729.9 h -2835 v 31 h 2835 v -31"
         style="fill:#77a4e5;fill-opacity:1;fill-rule:nonzero;stroke:none"
         id="path72" /><path
         d="m 6344.38,7350 h -526.06 c -25.53,0 -46.42,20.8 -46.42,46.4 0,25.5 20.89,46.4 46.42,46.4 h 526.06 c 25.54,0 46.43,-20.9 46.43,-46.4 0,-25.6 -20.89,-46.4 -46.43,-46.4"
         style="fill:#77a4e5;fill-opacity:1;fill-rule:nonzero;stroke:none"
         id="path74" /><path
         d="m 6344.38,5935.2 h -526.06 c -25.53,0 -46.42,20.9 -46.42,46.5 0,25.5 20.89,46.4 46.42,46.4 h 526.06 c 25.54,0 46.43,-20.9 46.43,-46.4 0,-25.6 -20.89,-46.5 -46.43,-46.5"
         style="fill:#77a4e5;fill-opacity:1;fill-rule:nonzero;stroke:none"
         id="path76" /><path
         d="m 6344.38,4460.5 h -526.06 c -25.53,0 -46.42,20.9 -46.42,46.4 0,25.6 20.89,46.4 46.42,46.4 h 526.06 c 25.54,0 46.43,-20.8 46.43,-46.4 0,-25.5 -20.89,-46.4 -46.43,-46.4"
         style="fill:#77a4e5;fill-opacity:1;fill-rule:nonzero;stroke:none"
         id="path78" /><path
         d="m 4830.28,9694.1 c 0,0 -264.6,308.7 -16.32,504.8 0,0 181.36,109.8 329.23,100.9 0,0 -209.53,-351.4 -141.74,-386.4 67.78,-34.9 205.25,408.4 205.25,408.4 0,0 412.7,40 545.47,-23.8 0,0 -352.81,-288.7 -278.51,-305.9 74.31,-17.2 455.39,266.2 455.39,266.2 0,0 384.11,-65.4 363.63,-299.7 -20.48,-234.3 -152.83,-306.7 -211.01,-300.5 -58.16,6.3 -398.45,136.2 -405.86,88.5 -7.41,-47.7 197.42,-203.4 340.86,-210.7 0,0 -270.81,-298.7 -450.79,-212.5 -179.98,86.2 -195.34,222.9 -307.54,274.1 -112.19,51.2 -207.96,51.1 -161.64,-1.2 46.32,-52.2 249.36,-103 313.52,-216.5 64.16,-113.5 121.73,-190 -64.48,-162 -186.21,28 -488.89,164.3 -502.18,320.3 -13.28,156 -13.28,156 -13.28,156"
         style="fill:#82b378;fill-opacity:1;fill-rule:nonzero;stroke:none"
         id="path80" /><path
         d="m 6103.95,9952.3 c 0,0 -1043.28,40.2 -1273.67,-258.2 0,0 -50.96,-152.6 -207.75,-291.6 l -24.44,-66.6 c 0,0 180.78,190.7 245.47,202.2 0,0 -101.16,369.6 1260.39,414.2"
         style="fill:#82b378;fill-opacity:1;fill-rule:nonzero;stroke:none"
         id="path82" /><path
         d="m 4622.53,9402.5 c 0,0 -223.93,-165.6 -239.48,-461.5 l 40.64,-3.6 c 0,0 71.52,306 200.79,425.6 129.27,119.7 -1.95,39.5 -1.95,39.5"
         style="fill:#82b378;fill-opacity:1;fill-rule:nonzero;stroke:none"
         id="path84" /><path
         d="m 3905.15,10082.3 c 0,0 420.9,235.7 224.48,555.6 0,0 -157.13,196.5 -325.5,247 0,0 89.8,-477.1 0,-488.3 -89.79,-11.2 -61.73,538.8 -61.73,538.8 0,0 -443.36,213.2 -617.34,196.4 0,0 275,-465.8 185.2,-454.6 -89.79,11.2 -398.46,482.7 -398.46,482.7 0,0 -454.58,84.1 -527.54,-185.2 -72.95,-269.4 44.9,-404.1 112.25,-421 67.34,-16.8 499.48,-11.2 488.25,-67.3 -11.22,-56.1 -303.05,-145.9 -465.8,-95.4 0,0 179.58,-443.4 415.29,-420.9 235.71,22.4 308.67,168.3 454.58,179.6 145.92,11.2 252.55,-28.1 179.59,-67.4 -72.96,-39.3 -319.89,-12.9 -437.74,-113 -117.86,-100.2 -213.26,-162 5.61,-206.9 218.87,-44.9 611.72,-16.8 690.29,151.6 78.57,168.3 78.57,168.3 78.57,168.3"
         style="fill:#a8d29f;fill-opacity:1;fill-rule:nonzero;stroke:none"
         id="path86" /><path
         d="m 2591.91,10890.5 c 0,0 1178.55,-381.7 1313.24,-808.2 0,0 -5.61,-190.8 112.24,-409.7 v -84.1 c 0,0 -123.46,286.2 -190.81,325.5 0,0 263.77,370.4 -1234.67,976.5"
         style="fill:#82b378;fill-opacity:1;fill-rule:nonzero;stroke:none"
         id="path88" /><path
         d="m 4017.39,9672.6 c 0,0 181.75,-276 78.14,-611.9 l -46.77,12.5 c 0,0 45.4,370.1 -49.69,556.2 -95.1,186.1 18.32,43.2 18.32,43.2"
         style="fill:#82b378;fill-opacity:1;fill-rule:nonzero;stroke:none"
         id="path90" /><path
         d="m 4574.78,10407.4 c 0,0 -554.83,310.7 -295.91,732.4 0,0 207.14,258.9 429.07,325.5 0,0 -118.36,-628.8 0,-643.6 118.37,-14.8 81.38,710.2 81.38,710.2 0,0 584.43,281.1 813.76,258.9 0,0 -362.49,-614 -244.13,-599.2 118.36,14.8 525.24,636.2 525.24,636.2 0,0 599.23,111 695.4,-244.1 96.17,-355.1 -59.18,-532.7 -147.96,-554.9 -88.77,-22.2 -658.4,-14.8 -643.61,-88.8 14.8,-73.9 399.48,-192.3 614.02,-125.7 0,0 -236.73,-584.4 -547.44,-554.9 -310.71,29.6 -406.88,222 -599.22,236.8 -192.34,14.8 -332.9,-37 -236.73,-88.8 96.17,-51.8 421.68,-17 577.03,-149 155.36,-132.1 281.12,-213.5 -7.4,-272.7 -288.51,-59.2 -806.36,-22.2 -909.93,199.8 -103.57,221.9 -103.57,221.9 -103.57,221.9"
         style="fill:#a8d29f;fill-opacity:1;fill-rule:nonzero;stroke:none"
         id="path92" /><path
         d="m 6305.87,11472.7 c 0,0 -1553.54,-503.1 -1731.09,-1065.3 0,0 7.4,-251.5 -147.95,-540 v -111 c 0,0 162.75,377.3 251.52,429.1 0,0 -347.7,488.2 1627.52,1287.2"
         style="fill:#82b378;fill-opacity:1;fill-rule:nonzero;stroke:none"
         id="path94" /><path
         d="m 4426.83,9867.4 c 0,0 -239.59,-363.9 -103,-806.7 l 61.63,16.5 c 0,0 -59.83,487.8 65.52,733.2 125.35,245.3 -24.15,57 -24.15,57"
         style="fill:#82b378;fill-opacity:1;fill-rule:nonzero;stroke:none"
         id="path96" /><path
         d="m 5642.91,9187.1 c 0,-600.2 -486.6,-1086.8 -1086.83,-1086.8 -125.32,0 -245.67,21.2 -357.67,60.3 -424.53,147.9 -729.15,551.6 -729.15,1026.5 h 2173.65"
         style="fill:#ed7d2b;fill-opacity:1;fill-rule:nonzero;stroke:none"
         id="path98" /><path
         d="m 4927.51,9187.1 c 0,-407.2 -97.53,-821.9 -428.99,-1008 -55.1,-31 -239.6,2.5 -300.11,-18.5 -424.53,147.9 -729.15,551.6 -729.15,1026.5 h 1458.25"
         style="fill:#f99746;fill-opacity:1;fill-rule:nonzero;stroke:none"
         id="path100" /><path
         d="M 5657.93,8045 H 3454.24 c 0,37 15.02,70.5 39.28,94.8 24.25,24.3 57.79,39.3 94.83,39.3 h 1935.52 c 74.02,0 134.06,-60.1 134.06,-134.1"
         style="fill:#ed7d2b;fill-opacity:1;fill-rule:nonzero;stroke:none"
         id="path102" /><path
         d="M 4625.41,8045 H 3454.24 c 0,37 15.02,70.5 39.28,94.8 24.25,24.3 57.79,39.3 94.83,39.3 h 902.99 c 74.03,0 134.07,-60.1 134.07,-134.1"
         style="fill:#f99746;fill-opacity:1;fill-rule:nonzero;stroke:none"
         id="path104" /><path
         d="M 5667.64,9153.8 H 3433.51 v 33.3 h 2234.13 v -33.3"
         style="fill:#b5453c;fill-opacity:1;fill-rule:nonzero;stroke:none"
         id="path106" /><path
         d="m 6143.87,8670.6 c 0,282.4 228.97,511.4 511.42,511.4 282.46,0 511.43,-229 511.43,-511.4 0,-282.5 -228.97,-511.5 -511.43,-511.5 -282.45,0 -511.42,229 -511.42,511.5"
         style="fill:#f99746;fill-opacity:1;fill-rule:nonzero;stroke:none"
         id="path108" /><path
         d="m 6317.19,8294.6 -59.65,-186 c -10.07,-31.5 13.38,-63.6 46.4,-63.6 h 13.65 c 12.08,0 23.73,4.5 32.69,12.6 l 140.17,126.8 c 23.93,21.6 20.58,60.1 -6.73,77.3 l -94.19,59.3 c -26.94,17 -62.63,4 -72.34,-26.4"
         style="fill:#f99746;fill-opacity:1;fill-rule:nonzero;stroke:none"
         id="path110" /><path
         d="m 7021.42,8294.6 59.64,-186 c 10.08,-31.5 -13.38,-63.6 -46.39,-63.6 h -13.66 c -12.08,0 -23.72,4.5 -32.68,12.6 l -140.18,126.8 c -23.93,21.6 -20.58,60.1 6.74,77.3 l 94.19,59.3 c 26.93,17 62.62,4 72.34,-26.4"
         style="fill:#f99746;fill-opacity:1;fill-rule:nonzero;stroke:none"
         id="path112" /><path
         d="M 6153.16,9278.5 C 6054,9198.2 6016.89,9069.7 6048.23,8954 c 16.95,-62.5 91.95,-87.7 142.31,-46.9 l 318.21,257.6 c 48.69,39.4 43.34,117 -11.92,146.5 -107.36,57.4 -243.13,48.7 -343.67,-32.7"
         style="fill:#f99746;fill-opacity:1;fill-rule:nonzero;stroke:none"
         id="path114" /><path
         d="m 7186.45,9235.4 c -89.8,90.6 -221.37,114.7 -333.34,71.9 -60.53,-23.1 -78.06,-100.2 -32.45,-146.3 l 288.17,-290.8 c 44.11,-44.5 120.76,-31.4 144.6,26.6 46.3,112.5 24.07,246.7 -66.98,338.6"
         style="fill:#f99746;fill-opacity:1;fill-rule:nonzero;stroke:none"
         id="path116" /><path
         d="m 6240.11,8670.6 c 0,229.3 185.89,415.2 415.18,415.2 229.3,0 415.19,-185.9 415.19,-415.2 0,-229.3 -185.89,-415.2 -415.19,-415.2 -229.29,0 -415.18,185.9 -415.18,415.2"
         style="fill:#ffffff;fill-opacity:1;fill-rule:nonzero;stroke:none"
         id="path118" /><path
         d="m 6951.74,8516 c 9.99,-5.7 13.52,-18.3 7.89,-28.3 -5.63,-10 -18.29,-13.5 -28.27,-7.9 -9.99,5.6 -13.52,18.3 -7.89,28.3 5.63,10 18.29,13.5 28.27,7.9"
         style="fill:#b0d4ff;fill-opacity:1;fill-rule:nonzero;stroke:none"
         id="path120" /><path
         d="m 6379.23,8838.7 c 9.99,-5.6 13.52,-18.3 7.89,-28.3 -5.63,-10 -18.29,-13.5 -28.28,-7.9 -9.98,5.7 -13.51,18.3 -7.88,28.3 5.63,10 18.29,13.5 28.27,7.9"
         style="fill:#b0d4ff;fill-opacity:1;fill-rule:nonzero;stroke:none"
         id="path122" /><path
         d="m 6634.54,8999.2 c 0,11.4 9.29,20.7 20.75,20.7 11.47,0 20.76,-9.3 20.76,-20.7 0,-11.5 -9.29,-20.8 -20.76,-20.8 -11.46,0 -20.75,9.3 -20.75,20.8"
         style="fill:#b0d4ff;fill-opacity:1;fill-rule:nonzero;stroke:none"
         id="path124" /><path
         d="m 6634.54,8342 c 0,11.4 9.29,20.7 20.75,20.7 11.47,0 20.76,-9.3 20.76,-20.7 0,-11.5 -9.29,-20.8 -20.76,-20.8 -11.46,0 -20.75,9.3 -20.75,20.8"
         style="fill:#b0d4ff;fill-opacity:1;fill-rule:nonzero;stroke:none"
         id="path126" /><path
         d="m 6811.85,8960.2 c 6.07,9.8 18.88,12.7 28.6,6.6 9.73,-6 12.68,-18.8 6.61,-28.6 -6.08,-9.7 -18.89,-12.6 -28.61,-6.6 -9.72,6.1 -12.68,18.9 -6.6,28.6"
         style="fill:#b0d4ff;fill-opacity:1;fill-rule:nonzero;stroke:none"
         id="path128" /><path
         d="m 6463.54,8402.9 c 6.07,9.7 18.88,12.7 28.6,6.6 9.72,-6.1 12.67,-18.9 6.6,-28.6 -6.07,-9.7 -18.88,-12.7 -28.6,-6.6 -9.73,6.1 -12.68,18.9 -6.6,28.6"
         style="fill:#b0d4ff;fill-opacity:1;fill-rule:nonzero;stroke:none"
         id="path130" /><path
         d="m 6931.65,8849.6 c 10,5.6 22.65,2 28.26,-8 5.62,-10 2.06,-22.6 -7.93,-28.2 -10,-5.6 -22.65,-2.1 -28.27,7.9 -5.61,10 -2.06,22.7 7.94,28.3"
         style="fill:#b0d4ff;fill-opacity:1;fill-rule:nonzero;stroke:none"
         id="path132" /><path
         d="m 6358.61,8527.8 c 10,5.6 22.65,2 28.27,-8 5.61,-10 2.06,-22.6 -7.94,-28.2 -9.99,-5.6 -22.65,-2.1 -28.27,7.9 -5.61,10 -2.06,22.7 7.94,28.3"
         style="fill:#b0d4ff;fill-opacity:1;fill-rule:nonzero;stroke:none"
         id="path134" /><path
         d="m 6983.9,8691.3 c 11.47,0 20.76,-9.3 20.76,-20.7 0,-11.5 -9.29,-20.8 -20.76,-20.8 -11.46,0 -20.76,9.3 -20.76,20.8 0,11.4 9.3,20.7 20.76,20.7"
         style="fill:#b0d4ff;fill-opacity:1;fill-rule:nonzero;stroke:none"
         id="path136" /><path
         d="m 6326.68,8691.3 c 11.47,0 20.77,-9.3 20.77,-20.7 0,-11.5 -9.3,-20.8 -20.77,-20.8 -11.46,0 -20.75,9.3 -20.75,20.8 0,11.4 9.29,20.7 20.75,20.7"
         style="fill:#b0d4ff;fill-opacity:1;fill-rule:nonzero;stroke:none"
         id="path138" /><path
         d="m 6833.68,8402.6 c 5.59,-10 2.01,-22.7 -8,-28.3 -10.01,-5.6 -22.65,-2 -28.24,8 -5.59,10 -2.02,22.7 7.99,28.3 10.01,5.6 22.66,2 28.25,-8"
         style="fill:#b0d4ff;fill-opacity:1;fill-rule:nonzero;stroke:none"
         id="path140" /><path
         d="m 6513.15,8976.3 c 5.6,-10 2.02,-22.6 -7.99,-28.2 -10.01,-5.6 -22.66,-2 -28.25,8 -5.59,10 -2.01,22.6 8,28.2 10.01,5.6 22.65,2 28.24,-8"
         style="fill:#b0d4ff;fill-opacity:1;fill-rule:nonzero;stroke:none"
         id="path142" /><path
         d="m 6622.47,8670.6 c 0,18.1 14.69,32.8 32.82,32.8 18.13,0 32.83,-14.7 32.83,-32.8 0,-18.2 -14.7,-32.9 -32.83,-32.9 -18.13,0 -32.82,14.7 -32.82,32.9"
         style="fill:#f99746;fill-opacity:1;fill-rule:nonzero;stroke:none"
         id="path144" /><path
         d="m 6443.72,8679.4 c 66.67,4 196.07,11.9 196.07,11.9 v -35.4 l -196.18,17.8 c -3.95,0.4 -3.85,5.5 0.11,5.7"
         style="fill:#f99746;fill-opacity:1;fill-rule:nonzero;stroke:none"
         id="path146" /><path
         d="m 6663.02,8903.1 c 4.17,-98.4 9.96,-232.5 9.96,-232.5 h -35.38 l 14.77,232.8 c 0.67,10.5 10.2,10.3 10.65,-0.3"
         style="fill:#f99746;fill-opacity:1;fill-rule:nonzero;stroke:none"
         id="path148" /><path
         d="m 20834.1,14958.2 c 0,132.5 107.5,239.9 240,239.9 132.5,0 239.9,-107.4 239.9,-239.9 0,-132.5 -107.4,-239.9 -239.9,-239.9 -132.5,0 -240,107.4 -240,239.9"
         style="fill:#ffffff;fill-opacity:1;fill-rule:nonzero;stroke:none"
         id="path150" /><path
         d="m 19270.7,12926.9 c 0,0 189.3,284.8 642,253.2 0,0 657.2,474.6 1358,63.2 0,0 745,102 1296.7,-88.2 367.8,-126.8 489.3,-259.8 489.3,-259.8 l -3786,31.6"
         style="fill:#f8fcff;fill-opacity:1;fill-rule:nonzero;stroke:none"
         id="path152" /><path
         d="m 21461.9,10377.7 c 0,0 -179.4,1023.2 710.2,1430.9 889.6,407.6 1246.3,317.7 1602.9,1186.4 356.7,868.6 1456,359.1 1456,359.1 v -2971.5 l -3769.1,-4.9"
         style="fill:#a8d29f;fill-opacity:1;fill-rule:nonzero;stroke:none"
         id="path154" /><path
         d="m 24408.2,6866.7 c 0,0 -2263.6,1030.3 -2671.2,1032.9 -407.7,2.7 -2258.9,-506.9 -2683.5,-421.9 -424.6,84.9 -2768.4,811.2 -3091.1,813.2 -322.7,2 -5334.2,-532.1 -6081.54,-1417.5 -137.26,-162.6 2187.84,-3242 3554.34,-3067.5 907.5,115.9 2930,3098.4 3182.9,3139.1 253,40.7 5118.1,-61.2 5118.1,-61.2 1092.7,0 2672,-17.1 2672,-17.1"
         style="fill:#9fc3f7;fill-opacity:1;fill-rule:nonzero;stroke:none"
         id="path156" /><path
         d="m 21804.9,17005.6 c -99.3,-255.8 -662.4,-543.4 -1129.9,-594.4 -467.4,-50.9 -279.8,-441.6 -670.4,-724.2 -390.6,-282.6 -1068.5,-239.9 -1068.5,-239.9 v 1862.4 c 437.3,78.1 891.5,117.5 1351.4,119.9 35.3,0.1 70.7,0.1 106.1,-0.1 140.9,-1.2 282.2,-6.6 423.6,-16 338.9,-22.4 678.6,-68.4 1014.8,-136.9 9.3,-91.3 5.3,-187.4 -27.1,-270.8"
         style="fill:#a8d29f;fill-opacity:1;fill-rule:nonzero;stroke:none"
         id="path158" /><path
         d="m 25340.6,15489.8 c -36,34.7 -72.7,69 -109.6,102.9 v -5210.1 h -6294.9 v 6903.5 c -21.7,-4.7 -43.5,-9.4 -65.1,-14.3 -11.9,-2.7 -23.7,-5.4 -35.6,-8 -39.6,-9.2 -79.1,-18.8 -118.4,-28.8 V 9980.7 h 6733.1 v 5400.8 c -36,36.6 -72.5,72.7 -109.5,108.3"
         style="fill:#b5cffc;fill-opacity:1;fill-rule:nonzero;stroke:none"
         id="path160" /><path
         d="M 26046.1,9980.7 H 18070 c 0,219.3 177.7,397 397,397 h 7182.1 c 219.2,0 397,-177.7 397,-397"
         style="fill:#b5cffc;fill-opacity:1;fill-rule:nonzero;stroke:none"
         id="path162" /><path
         d="M 22286.2,17169.6 V 10199.8 H 22058 v 7027.1 c 56.5,-13.3 112.8,-27.2 169,-41.7 19.8,-5.1 39.5,-10.3 59.2,-15.6"
         style="fill:#b5cffc;fill-opacity:1;fill-rule:nonzero;stroke:none"
         id="path164" /><path
         d="m 17001.9,14012.2 c 0,0 -391.2,-28.5 -540.7,-405.7 -149.4,-377.2 -379.7,-656.7 -258.7,-825.3 121,-168.6 269,-270.2 233.4,-348.5 -35.6,-78.3 -273.6,-78.8 -458.6,-270.9 -185.1,-192.2 -523.6,-747 10.2,-854.9 407.8,-82.5 104.5,-595.6 372.5,-795.8 342.8,-256.2 1520.4,-509.5 1905.9,-206.9 385.5,302.5 246.8,911.5 121.7,1121.3 -125,209.8 278.8,508.3 340,612.4 249.1,423.3 -551.1,474.6 -434.2,712.9 117,238.2 238,468.3 -147.8,686.7 -189.5,107.2 -300.5,731.8 -1143.7,574.7"
         style="fill:#233862;fill-opacity:1;fill-rule:nonzero;stroke:none"
         id="path166" /><path
         d="m 21209,7602.6 c -68.9,-735.3 -562.9,-741 -2419.5,-719.7 -601,7 -1167.9,15.5 -1659.1,26.1 -1026.5,22.2 -576,323.8 -476.3,302.4 35.3,-7.5 266.1,-80.5 561.3,9.4 539.5,164.4 1316.9,542.5 1668.8,524.1 544.4,-28.4 1251.1,16.3 1251.1,16.3 0,0 -1919.9,247.4 -1988.8,574.7 -69,327.4 -1101,846.3 -876.6,887.5 224.3,41.3 1044.9,-71.4 1044.9,-71.4 0,0 453.9,-224.8 996.7,-395.1 858.6,-269.4 1949.8,-596.2 1897.5,-1154.3"
         style="fill:#e8945b;fill-opacity:1;fill-rule:nonzero;stroke:none"
         id="path168" /><path
         d="m 17706.4,11581.8 c -165.2,-76.6 -489.8,-65.7 -631.6,48.7 -73.6,59.4 -106.8,86.8 -61.6,142 75.3,52.2 155,332.2 76.6,777.1 l 35.6,-0.9 598.8,-14.7 c 0,0 18.3,-184.6 47.4,-356.3 24.4,-143.1 57.2,-287.3 92.6,-298.8 93.9,-39.6 193.3,-134.4 -157.8,-297.1"
         style="fill:#ffb27d;fill-opacity:1;fill-rule:nonzero;stroke:none"
         id="path170" /><path
         d="m 17724.2,12534 c 0,0 18.3,-184.5 47.5,-356.2 -325.6,-46.8 -547.9,219.2 -646.3,371 l 598.8,-14.8"
         style="fill:#e8945b;fill-opacity:1;fill-rule:nonzero;stroke:none"
         id="path172" /><path
         d="m 17907.6,12475.5 c 0,0 -726.8,-277.9 -892.9,177.3 -166,455.3 -371.7,726 85.3,922.7 456.9,196.6 611,56 703.4,-82.5 92.4,-138.4 288.9,-933.5 104.2,-1017.5"
         style="fill:#ffb27d;fill-opacity:1;fill-rule:nonzero;stroke:none"
         id="path174" /><path
         d="m 17428.9,13707.7 c 0,0 -5.9,-607.1 -284.4,-797.8 -278.5,-190.7 -441.7,-156.8 -441.7,-156.8 0,0 167.6,272.8 97.7,617.4 0,0 384.9,536.6 628.4,337.2"
         style="fill:#233862;fill-opacity:1;fill-rule:nonzero;stroke:none"
         id="path176" /><path
         d="m 17395.1,13646.3 c 0,0 192.8,-65 271.4,-167.7 78.7,-102.7 192.8,-196.6 248.5,-302 0,0 18.8,417.9 -225.4,561.8 -259,152.4 -294.5,-92.1 -294.5,-92.1"
         style="fill:#233862;fill-opacity:1;fill-rule:nonzero;stroke:none"
         id="path178" /><path
         d="m 17429.4,13638.3 c 0,0 60.8,-611.3 -261.7,-931.5 0,0 262.7,484.7 161.3,866 -101.4,381.3 100.4,65.5 100.4,65.5"
         style="fill:#233862;fill-opacity:1;fill-rule:nonzero;stroke:none"
         id="path180" /><path
         d="m 17655,12668.2 c 0,0 239.7,103.9 245.5,112.1 5.8,8.2 0.6,-45.6 12.5,-72.4 11.8,-26.9 -73.9,-69.4 -116.1,-88.7 -42.3,-19.3 -105.2,-16.9 -141.9,49"
         style="fill:#ffffff;fill-opacity:1;fill-rule:nonzero;stroke:none"
         id="path182" /><path
         d="m 17732.7,11932.5 c 0,0 322.7,-64.4 773.4,316.9 177,149.8 929.3,634.1 1153,787.3 223.6,153.1 944.8,445.8 944.8,445.8 l 135.9,-139.2 c 0,0 -826.7,-703.7 -905.2,-734.6 -78.5,-30.9 -835,-733.2 -863.5,-799.6 -28.5,-66.4 -330.7,-334.9 -301.9,-671.7 16.9,-197.4 -936.5,795.1 -936.5,795.1"
         style="fill:#ffb27d;fill-opacity:1;fill-rule:nonzero;stroke:none"
         id="path184" /><path
         d="m 17068.3,11874.9 c 0,0 -254.7,-25.8 -456.4,192.8 -157.2,170.4 -929.3,634 -1152.9,787.2 -223.6,153.1 -1150.6,474 -1150.6,474 l -82.4,-129.3 c 0,0 978.9,-741.8 1057.4,-772.7 78.5,-30.9 660.3,-580.6 755.4,-748.6 89.8,-158.5 357.1,-546.5 455.6,-718.4 152.8,-267 573.9,915 573.9,915"
         style="fill:#ffb27d;fill-opacity:1;fill-rule:nonzero;stroke:none"
         id="path186" /><path
         d="m 18211.9,11932.5 c 0,0 484,-768.7 512.5,-939.5 28.4,-170.8 -208.8,-967.9 -218.3,-1081.8 -9.5,-113.9 -199.3,-759.1 -199.3,-759.1 h -1432.9 c 0,0 -73.4,1037.2 -179,1310.9 -105.7,273.8 -342.9,839.5 -342.9,839.5 l 765.4,499.5 1094.5,130.5"
         style="fill:#ffb27d;fill-opacity:1;fill-rule:nonzero;stroke:none"
         id="path188" /><path
         d="m 22387.9,4106.5 -374.5,-66.3 c -34.7,66.6 -72.2,133.1 -111.3,199 -320.4,536.3 -774.1,1041.4 -1072.6,1420.7 -884.8,1123.9 276.2,1521.9 -1623.9,1487.5 -1900.2,-34.5 -2637.6,288.8 -2646.3,848.9 -3.4,215.4 322.5,1155.7 322.5,1155.7 h 1433 c 0,0 -144.9,-107.9 -85.4,-241.3 59.5,-133.2 2044.9,-703.7 2320.2,-788.3 479.2,-147 533.4,-543.6 896.7,-1421.8 189.2,-457.2 635.8,-1721.1 838.4,-2298.9 63.6,-181.3 103.2,-295.2 103.2,-295.2"
         style="fill:#ffb27d;fill-opacity:1;fill-rule:nonzero;stroke:none"
         id="path190" /><path
         d="m 14424.2,13281 c 0,0 -223.8,154.3 -344.3,176.2 -120.5,21.9 -246.4,43.8 -224.5,0 21.9,-43.8 164.3,-46.3 153.3,-97.1 -10.9,-50.8 -454.6,24.1 -416.2,-79.1 38.3,-103.1 314.5,-179.8 414.7,-179.8 100.1,0 384.1,52.1 384.1,52.1 l 32.9,127.7"
         style="fill:#ffb27d;fill-opacity:1;fill-rule:nonzero;stroke:none"
         id="path192" /><path
         d="m 20589.1,13471.7 c 0,0 223.8,154.2 344.3,176.1 120.5,21.9 246.4,43.9 224.5,0 -21.9,-43.8 -164.3,-46.3 -153.3,-97 10.9,-50.9 454.6,24.1 416.2,-79.1 -38.3,-103.2 -314.5,-179.9 -414.6,-179.9 -100.2,0 -384.2,52.1 -384.2,52.1 l -32.9,127.8"
         style="fill:#ffb27d;fill-opacity:1;fill-rule:nonzero;stroke:none"
         id="path194" /><path
         d="m 16960.9,11881.9 c 0,0 420.8,-898.2 -369.2,-1140.2 l 224.7,-899.2 c 0,0 445.1,-347.2 1683.4,-10.1 0,0 272.7,833.4 224.6,1160.6 -44.9,305 -740.4,961.3 -740.4,961.3 l -89.1,-10.3 c 0,0 341.6,-467.4 322.6,-600.2 -19,-132.9 -521.5,-249.1 -846.9,-45.1 -93.7,58.7 -317.9,575.3 -317.9,575.3 l -91.8,7.9"
         style="fill:#ffffff;fill-opacity:1;fill-rule:nonzero;stroke:none"
         id="path196" /><path
         d="m 18331.8,9174.9 851.3,-376.2 c 0,0 -71.2,-195 -448.4,-223.5 -282.9,-21.3 -698.8,320.6 -728.5,489.5 l 325.6,110.2"
         style="fill:#ed7d2b;fill-opacity:1;fill-rule:nonzero;stroke:none"
         id="path198" /><path
         d="m 16881.9,9152.1 c 0,0 -26.5,30.9 -6.1,80.5 0,0 654.4,-276.3 1459.5,-10.2 0,0 19.8,-27.3 -20.5,-70.3 0,0 -683.3,-289.1 -1432.9,0"
         style="fill:#ed7d2b;fill-opacity:1;fill-rule:nonzero;stroke:none"
         id="path200" /><path
         d="m 22926.7,3123.5 c -49.9,-78.3 -398.6,-92.5 -455.5,0 -57,92.5 -106.8,291.8 -249.1,391.5 -142.4,99.6 -313.2,149.4 -249.1,306 64,156.6 40.4,219.2 40.4,219.2 -34.7,66.6 -72.2,133.1 -111.3,199 115.8,32.7 264.9,85.3 382.6,162.5 63.6,-181.3 103.2,-295.2 103.2,-295.2 0,0 254.1,-423.2 301.5,-622.4 47.5,-199.3 287.1,-282.3 237.3,-360.6"
         style="fill:#ffffff;fill-opacity:1;fill-rule:nonzero;stroke:none"
         id="path202" /><path
         d="m 17625.8,6899.4 c -1026.5,22.2 -1769.7,63.1 -1756.7,108.1 18.9,66.3 75.6,189.7 409.1,218.2 333.4,28.4 390.3,199.3 568.2,206.4 177.9,7.1 156.6,-199.3 256.2,-220.7 35.3,-7.5 256.4,60.5 551.6,150.3 8.1,-130.2 45.6,-307.3 -28.4,-462.3"
         style="fill:#ffffff;fill-opacity:1;fill-rule:nonzero;stroke:none"
         id="path204" /><path
         d="m 16881.9,9152.1 c 85.4,16.2 462.6,-259 1352.5,-24 0,0 275,-248.3 441,-353.6 176.7,-112.1 318.1,-174.8 318.1,-174.8 0,0 94,-1103.4 -1595.1,-1397.6 0,0 -900.9,87.3 -919.8,808.5 -19.4,735.6 403.3,1141.5 403.3,1141.5"
         style="fill:#f99746;fill-opacity:1;fill-rule:nonzero;stroke:none"
         id="path206" /><path
         d="m 22286.2,6883.8 c 0,0 1239.1,-577.1 1363.6,-520.5 124.6,56.6 758.4,503.4 758.4,503.4 L 23365.8,7020 22286.2,6883.8"
         style="fill:#9fc3f7;fill-opacity:1;fill-rule:nonzero;stroke:none"
         id="path208" /><path
         d="m 13435.2,3805.9 c 0,0 -93.2,-144.6 0,-322 0,0 123.4,0 217.7,86.8 0,0 -35.4,225.1 -217.7,235.2"
         style="fill:#9fc3f7;fill-opacity:1;fill-rule:nonzero;stroke:none"
         id="path210" /><path
         d="m 23627.2,6381.7 c 0,0 -56.6,-86.8 -18.9,-230.2 0,0 128.3,-18.9 192.5,26.4 0,0 -60.2,193.1 -173.6,203.8"
         style="fill:#9fc3f7;fill-opacity:1;fill-rule:nonzero;stroke:none"
         id="path212" /><path
         d="M 28412,3000.1 H 1587.96 c -16.75,0 -30.46,13.7 -30.46,30.5 v 10.4 c 0,16.7 13.71,30.4 30.46,30.4 H 28412 c 16.8,0 30.5,-13.7 30.5,-30.4 v -10.4 c 0,-16.8 -13.7,-30.5 -30.5,-30.5"
         style="fill:#2e3552;fill-opacity:1;fill-rule:nonzero;stroke:none"
         id="path214" /><path
         d="m 14755.4,3644.9 c 0,0 -667.9,-202 -700.5,-573.5 h 2085.3 c 0,0 -16.3,95.6 -76,95.6 -59.8,0 -894.6,10.9 -894.6,10.9 0,0 -169.8,472.4 -414.2,467"
         style="fill:#ed7d2b;fill-opacity:1;fill-rule:nonzero;stroke:none"
         id="path216" /><path
         d="m 17339.3,3644.9 c 0,0 -667.9,-202 -700.5,-573.5 h 2085.3 c 0,0 -16.3,95.6 -76.1,95.6 -59.7,0 -894.5,10.9 -894.5,10.9 0,0 -169.8,472.4 -414.2,467"
         style="fill:#f99746;fill-opacity:1;fill-rule:nonzero;stroke:none"
         id="path218" /><path
         d="m 23858,3968.6 c 0,0 174.4,-746.8 80.7,-796.8 0,0 -80.6,27.5 -109.2,-41 -7.4,-17.9 -12.3,-34.6 -7.9,-59.4 h 218.2 c 0,0 35,100.1 81.6,144.7 25.6,24.6 206.5,693.6 206.5,693.6 l -469.9,58.9"
         style="fill:#163560;fill-opacity:1;fill-rule:nonzero;stroke:none"
         id="path220" /><path
         d="m 23604.9,3968.6 c 0,0 174.3,-746.8 80.6,-796.8 0,0 -80.6,27.5 -109.1,-41 -7.5,-17.9 -1.6,-34.6 2.7,-59.4 h 196.2 c 0,0 46.4,100.1 92.9,144.7 25.7,24.6 206.5,693.6 206.5,693.6 l -469.8,58.9"
         style="fill:#2b478b;fill-opacity:1;fill-rule:nonzero;stroke:none"
         id="path222" /><path
         d="m 23607.2,5141.5 c 0,0 205.5,-254.5 150.5,-358.7 l -253.6,120 c 0,0 -21.3,84.4 103.1,238.7"
         style="fill:#233862;fill-opacity:1;fill-rule:nonzero;stroke:none"
         id="path224" /><path
         d="m 23867.7,4518.5 c 65.3,177.9 -44.7,375.2 -229.4,417.7 -85,19.6 -197.4,30.3 -281.6,-103.8 -19.1,-30.5 -88.3,-68 -124.3,-71.9 -19.8,-2.1 -40.6,-108.9 -39.2,-122.4 20.3,-194 120.2,-239.3 277.9,-314.2 166.5,-79.2 331.5,17.3 396.6,194.6"
         style="fill:#2b478b;fill-opacity:1;fill-rule:nonzero;stroke:none"
         id="path226" /><path
         d="m 23559.7,4876.4 253.7,-120.1 c 8.8,16.9 10.9,37.6 8.2,60.6 -14.3,119.2 -158.8,298.1 -158.8,298.1 -124.4,-154.2 -103.1,-238.6 -103.1,-238.6"
         style="fill:#2b478b;fill-opacity:1;fill-rule:nonzero;stroke:none"
         id="path228" /><path
         d="m 23821.5,4816.9 c 0,0 100.9,-82.7 109.1,-211.9 0,0 -9.6,23.7 -21.8,33 0,0 28.6,-77.1 -5.6,-121.7 0,0 0.4,17.2 -7.3,32.2 0,0 7.5,-62.8 -59.9,-118.6 l 1.9,21.7 c 0,0 -23.5,-35.2 -29.9,-56.7 -6.4,-21.6 -43.1,-12.1 -43.8,-8.2 -0.8,3.8 32.8,255.7 32.8,255.7 l -39.3,140.4 63.8,34.1"
         style="fill:#2b478b;fill-opacity:1;fill-rule:nonzero;stroke:none"
         id="path230" /><path
         d="m 23226.4,4758.2 c 0,0 9.8,11.1 24,7.8 0,0 8.3,-49.3 -38.4,-63.6 0,0 3.6,45.3 14.4,55.8"
         style="fill:#163560;fill-opacity:1;fill-rule:nonzero;stroke:none"
         id="path232" /><path
         d="m 23339.4,4670.3 c 1.9,-0.1 195.2,-23.9 357.3,-139.6 -164.9,117.8 -354.8,145.7 -356.8,145.9 l -0.5,-6.3"
         style="fill:#163560;fill-opacity:1;fill-rule:nonzero;stroke:none"
         id="path234" /><path
         d="m 23325.8,4653.8 c 2.2,-0.7 218.5,-82.8 372.7,-262.1 -156.9,182.5 -368.1,268.5 -370.3,269.2 l -2.4,-7.1"
         style="fill:#163560;fill-opacity:1;fill-rule:nonzero;stroke:none"
         id="path236" /><path
         d="m 23310.3,4634.2 c 1.7,-1 165.2,-106.8 260.6,-281.6 -97,177.9 -255.7,285.9 -257.4,287 l -3.2,-5.4"
         style="fill:#163560;fill-opacity:1;fill-rule:nonzero;stroke:none"
         id="path238" /><path
         d="m 23821.6,4816.9 c -0.1,0 -0.1,0 -0.1,0 v 0 c -1.8,0.4 -33.1,7.7 -63.9,42.6 -31.6,35.9 -94.8,255.5 -94.8,255.5 0,0 144.5,-178.9 158.8,-298.1"
         style="fill:#2b478b;fill-opacity:1;fill-rule:nonzero;stroke:none"
         id="path240" /><path
         d="m 23821.6,4816.9 h -0.1 v 0 c 0,0 0,0 0.1,0 v 0"
         style="fill:#2b478b;fill-opacity:1;fill-rule:nonzero;stroke:none"
         id="path242" /><path
         d="m 25563,4032.7 c 86.1,217 -2.3,684 -424.9,502.1 -89.7,-27.2 -197.7,-92.1 -327.1,-210.6 0,0 -185.7,-437.4 546.5,-726.8 0,0 72.6,-31.4 82.9,-98.1 10.3,-66.6 21.8,-367.7 -3,-376.8 -24.9,-9.1 -61.6,25.4 -88.4,-12.6 -26.8,-38 -17.4,-100.7 -17.4,-100.7 h 266.1 c 0,0 127.1,675.7 120,729.4 -7.2,53.8 -199.8,180.4 -154.7,294.1"
         style="fill:#163560;fill-opacity:1;fill-rule:nonzero;stroke:none"
         id="path244" /><path
         d="m 23742.2,3800.9 c 698.1,-457.6 1453.3,-59.8 1453.3,-59.8 l 82.6,827.7 c -200.4,1.3 -249,-33.4 -370.8,-71.2 -60.4,-18.7 -110.7,-41.9 -155.5,-54 -309.7,-83.6 -564.5,-51.9 -672.7,-51.9 -163.8,0 -336.9,269.2 -336.9,269.2 L 23518,4367.1 c 0,0 11.4,-426.8 224.2,-566.2"
         style="fill:#2b478b;fill-opacity:1;fill-rule:nonzero;stroke:none"
         id="path246" /><path
         d="m 25507.5,4463 43.4,-184.3 c 0,0 784.3,247.9 583.1,612.8 -57.5,104.1 -143.6,278.3 -30,349.3 96.8,60.6 59.8,186.9 3.8,217.1 -117.9,63.6 -237.7,-16.8 -293.9,-95.4 -106.8,-149.6 35.1,-383.4 35.1,-383.4 173.9,-374.3 -341.5,-516.1 -341.5,-516.1"
         style="fill:#2b478b;fill-opacity:1;fill-rule:nonzero;stroke:none"
         id="path248" /><path
         d="m 25485.4,3938.4 c 84.3,59.5 252.1,678.9 -207.3,653.4 -142.2,-15.9 -268.5,-47 -430.7,-113.8 0,0 -292.7,-354.3 295.4,-877.7 0,0 57.3,-54.4 44.1,-120.6 -13.2,-66.2 -105.9,-352.8 -132.3,-352.8 -26.5,0 -114.7,38.2 -152.9,11.7 -38.3,-26.5 14.7,-129.4 14.7,-129.4 h 54.4 160.2 54.5 c 0,0 332.3,547 344,599.9 11.8,52.9 -144.1,258.8 -44.1,329.3"
         style="fill:#2b478b;fill-opacity:1;fill-rule:nonzero;stroke:none"
         id="path250" /><path
         d="m 23464.6,11164.3 c 0,0 -273.7,-111 -468.2,168 0,0 315.7,53.6 468.2,-168"
         style="fill:#6bb7bf;fill-opacity:1;fill-rule:nonzero;stroke:none"
         id="path252" /><path
         d="m 23483.9,11278.9 c 0,0 19.1,97.7 133.9,101.1 0,0 -43.2,-99 -133.9,-101.1"
         style="fill:#6bb7bf;fill-opacity:1;fill-rule:nonzero;stroke:none"
         id="path254" /><path
         d="m 23426.1,11851.2 c 0,0 -132.6,-14.1 -182.3,131.2 0,0 143.7,-16 182.3,-131.2"
         style="fill:#6bb7bf;fill-opacity:1;fill-rule:nonzero;stroke:none"
         id="path256" /><path
         d="m 23111.3,13773.5 c 267.7,57.4 272.3,276.4 272.3,276.4 -315.4,-99.6 -272.3,-276.4 -272.3,-276.4"
         style="fill:#6bb7bf;fill-opacity:1;fill-rule:nonzero;stroke:none"
         id="path258" /><path
         d="m 23092.9,13823.5 c 0,0 -167,-67.8 -285.8,102.5 0,0 192.8,32.7 285.8,-102.5"
         style="fill:#6bb7bf;fill-opacity:1;fill-rule:nonzero;stroke:none"
         id="path260" /><path
         d="m 23459.4,10522 34.6,-39.8 c 5.2,-6 15.2,-2.2 15.2,5.8 -2,1127.2 -145.1,2128.7 -265.3,2719.5 -131.2,644.9 -264.3,1026.2 -265.6,1030 1.3,-3.8 121.4,-391.2 252.1,-1034.2 120.4,-591.9 258.2,-1365.4 223.3,-2666 -0.1,-5.6 2,-11 5.7,-15.3"
         style="fill:#6bb7bf;fill-opacity:1;fill-rule:nonzero;stroke:none"
         id="path262" /><path
         d="m 22980.6,14391.1 c 42.7,-34.3 206.2,-180.5 47.6,-293.3 0,0 -121.6,-38.6 -161.9,55.1 -30.7,71.5 -39,151.2 -41.2,184.9 -0.6,8.8 6,16.3 14.8,17.1 9.4,0.8 21.8,2.9 34.3,7.8 15.1,5.8 22.7,28.5 43.1,33.5 12.7,3.2 25.7,5.8 40.5,4.5 8.4,-0.7 16.2,-4.3 22.8,-9.6"
         style="fill:#f99746;fill-opacity:1;fill-rule:nonzero;stroke:none"
         id="path264" /><path
         d="m 23071.4,14138.6 c 0,0 -48.4,-38.8 -30.5,-100.8 l 0.5,-23 c 0,0 -12.9,57.4 -72.3,75.1 0,0 53.5,-5.9 102.3,48.7"
         style="fill:#6bb7bf;fill-opacity:1;fill-rule:nonzero;stroke:none"
         id="path266" /><path
         d="m 23111.3,13773.5 c 267.7,57.4 272.3,276.4 272.3,276.4 0,0 -212.1,-116.5 -272.3,-276.4"
         style="fill:#8ad8db;fill-opacity:1;fill-rule:nonzero;stroke:none"
         id="path268" /><path
         d="m 23368.5,13923.5 c 0,0 168.4,-64.4 283.7,108.3 0,0 -193.4,28.8 -283.7,-108.3"
         style="fill:#6bb7bf;fill-opacity:1;fill-rule:nonzero;stroke:none"
         id="path270" /><path
         d="m 23068.2,10615.4 -33.7,-40.5 c -5.2,-6.1 -15.2,-2.5 -15.4,5.5 -20.6,1127 102.4,2131.2 210.8,2724.3 118.2,647.4 243.6,1031.2 244.9,1035 -1.3,-3.8 -113.5,-393.4 -231.4,-1039 -108.5,-594.1 -230.7,-1370.3 -169.8,-2669.9 0.3,-5.6 -1.8,-11.1 -5.4,-15.4"
         style="fill:#6bb7bf;fill-opacity:1;fill-rule:nonzero;stroke:none"
         id="path272" /><path
         d="m 23469.4,14493.3 c -42,-35.2 -202.5,-184.6 -41.7,-294.2 0,0 122.3,-36.1 160.7,58.3 29.3,72.1 36,152 37.5,185.8 0.4,8.8 -6.3,16.1 -15.1,16.7 -9.4,0.7 -21.9,2.5 -34.5,7.1 -15.1,5.6 -23.2,28.1 -43.7,32.7 -12.8,2.9 -25.8,5.3 -40.6,3.7 -8.3,-0.9 -16.1,-4.7 -22.6,-10.1"
         style="fill:#f99746;fill-opacity:1;fill-rule:nonzero;stroke:none"
         id="path274" /><path
         d="m 23383.7,14239 c 0,0 49.2,-37.8 32.5,-100.2 v -22.9 c 0,0 11.7,57.6 70.8,76.5 0,0 -53.5,-7 -103.3,46.6"
         style="fill:#6bb7bf;fill-opacity:1;fill-rule:nonzero;stroke:none"
         id="path276" /><path
         d="m 23297.1,14120.9 c 0,0 -177.8,-29.7 -256.5,162.5 0,0 195.2,-10.2 256.5,-162.5"
         style="fill:#6bb7bf;fill-opacity:1;fill-rule:nonzero;stroke:none"
         id="path278" /><path
         d="m 22934.8,10819.1 25.1,-46.4 c 3.8,-7.1 14.4,-5.6 16.1,2.2 243.9,1100.6 322.6,2109.2 334.2,2712 12.6,658 -34.1,1059.1 -34.6,1063.1 0.5,-4 33.1,-408.2 20.5,-1064.3 -11.6,-603.9 -45.8,-1388.8 -363.5,-2650.5 -1.3,-5.5 -0.4,-11.2 2.2,-16.1"
         style="fill:#6bb7bf;fill-opacity:1;fill-rule:nonzero;stroke:none"
         id="path280" /><path
         d="m 23311.3,14699.4 c 34.2,-42.8 161.9,-221.2 -17.5,-296.6 0,0 -127.1,-11.1 -145.9,89.1 -14.4,76.4 -5.2,156 0,189.4 1.4,8.7 9.5,14.6 18.2,13.4 9.3,-1.2 22,-1.9 35.2,0.2 16,2.4 28.4,22.9 49.3,23.3 13.1,0.3 26.4,0.1 40.6,-4.4 8,-2.6 14.9,-7.8 20.1,-14.4"
         style="fill:#f99746;fill-opacity:1;fill-rule:nonzero;stroke:none"
         id="path282" /><path
         d="m 23344.8,14433.2 c 0,0 -55.7,-27.4 -51.7,-91.8 l -4.5,-22.5 c 0,0 -0.1,58.8 -54.2,89.1 0,0 51,-17.5 110.4,25.2"
         style="fill:#6bb7bf;fill-opacity:1;fill-rule:nonzero;stroke:none"
         id="path284" /><path
         d="m 23150.4,14318.9 c 0,0 0,140.8 -121.3,185 0,0 -26.7,-117.4 121.3,-185"
         style="fill:#6bb7bf;fill-opacity:1;fill-rule:nonzero;stroke:none"
         id="path286" /><path
         d="m 23435.3,14545.2 c 0,0 -3.5,107.4 95.8,138.4 0,0 24,-100 -95.8,-138.4"
         style="fill:#ed9f4a;fill-opacity:1;fill-rule:nonzero;stroke:none"
         id="path288" /><path
         d="m 23109.3,13898.9 c -3.6,-3.1 -51.8,104.5 46.3,191 0,0 41,-115.2 -46.3,-191"
         style="fill:#ed9f4a;fill-opacity:1;fill-rule:nonzero;stroke:none"
         id="path290" /><path
         d="m 23040.6,13907.3 c 2.7,-0.7 0.8,53.6 -50.2,61.3 0,0 -8.7,-45.2 50.2,-61.3"
         style="fill:#6bb7bf;fill-opacity:1;fill-rule:nonzero;stroke:none"
         id="path292" /><path
         d="m 23548.8,14089.9 c 0,0 43,89.1 180.7,73.6 0,0 -20.7,-95.5 -180.7,-73.6"
         style="fill:#6bb7bf;fill-opacity:1;fill-rule:nonzero;stroke:none"
         id="path294" /><path
         d="m 22787.8,10390.1 h 882.6 c 59.3,0 104.8,52.6 96.3,111.3 l -410.9,2831.4 c -3.8,26.4 -26.4,46 -53.1,46 h -131.2 c -28.4,0 -52.6,-20.8 -56.7,-48.9 l -420.6,-2831.3 c -8.5,-57.1 35.8,-108.5 93.6,-108.5"
         style="fill:#f99746;fill-opacity:1;fill-rule:nonzero;stroke:none"
         id="path296" /><path
         d="m 23474.9,10475.7 -218.1,2902.5 c 23.5,-3.2 42.5,-21.4 46,-45.4 l 410.8,-2831.4 c 8.6,-58.7 -36.9,-111.3 -96.2,-111.3 h -176.5 c 22.8,20.5 36.5,51.5 34,85.6"
         style="fill:#ffb278;fill-opacity:1;fill-rule:nonzero;stroke:none"
         id="path298" /></g></g></svg>
